<svg xmlns="http://www.w3.org/2000/svg" width="620" height="229" viewBox="0 0 620 229" version="1.1"><title>background</title><desc>Created with Sketch.</desc><g stroke="none" stroke-width="1" fill="none" fill-rule="evenodd"><g transform="translate(77.500000, 57.000000) rotate(-330.000000) translate(-77.500000, -57.000000) translate(50.000000, 30.000000)"><path d="M51.65 47.47C53.71 45.64 55 42.97 55 40L55 10C55 4.48 50.52 0 45 0L15 0C12.45 0 10.11 0.96 8.35 2.53L3.93 6.01 3.92 6.06C1.54 7.89 0 10.76 0 14L0 44C0 49.52 4.48 54 10 54L40 54C42.25 54 44.33 53.25 46 52L46.01 52.01 51.64 47.5 51.65 47.47Z" stroke="#F9F6EC" stroke-width="2"/><ellipse fill="#F9F6EC" cx="9" cy="37" rx="2" ry="3"/><ellipse fill="#F9F6EC" cx="28" cy="37" rx="2" ry="3"/><path d="M18 43.55C20.12 43.55 21.85 41.83 21.85 39.7 21.85 37.58 20.12 39.04 18 39.04 15.88 39.04 14.15 37.58 14.15 39.7 14.15 41.83 15.88 43.55 18 43.55Z" fill="#F9F6EC"/><g transform="translate(6.000000, 10.000000)" stroke="#F9F6EC" stroke-linecap="round"><path d="M0.51 0.38L5.51 0.38C6.61 0.38 7.51 1.27 7.51 2.39L7.51 7.38"/><path d="M10.51 0.38L15.51 0.38C16.61 0.38 17.51 1.27 17.51 2.39L17.51 7.38"/><path d="M20.51 0.38L25.51 0.38C26.61 0.38 27.51 1.27 27.51 2.39L27.51 7.38"/><path d="M30.51 0.38L35.51 0.38C36.61 0.38 37.51 1.27 37.51 2.39L37.51 7.38"/></g><g transform="translate(6.000000, 20.000000)" stroke="#F9F6EC" stroke-linecap="round"><path d="M0.51 0.38L5.51 0.38C6.61 0.38 7.51 1.27 7.51 2.39L7.51 7.38"/><path d="M10.51 0.38L15.51 0.38C16.61 0.38 17.51 1.27 17.51 2.39L17.51 7.38"/><path d="M20.51 0.38L25.51 0.38C26.61 0.38 27.51 1.27 27.51 2.39L27.51 7.38"/><path d="M30.51 0.38L35.51 0.38C36.61 0.38 37.51 1.27 37.51 2.39L37.51 7.38"/></g><g transform="translate(36.000000, 30.000000)" stroke="#F9F6EC" stroke-linecap="round"><path d="M0.51 0.38L5.51 0.38C6.61 0.38 7.51 1.27 7.51 2.39L7.51 7.38"/></g><g transform="translate(36.000000, 40.000000)" stroke="#F9F6EC" stroke-linecap="round"><path d="M0.51 0.38L5.51 0.38C6.61 0.38 7.51 1.27 7.51 2.39L7.51 7.38"/></g></g><g transform="translate(157.500000, 172.000000) scale(-1, 1) rotate(-330.000000) translate(-157.500000, -172.000000) translate(130.000000, 145.000000)"><path d="M51.65 47.47C53.71 45.64 55 42.97 55 40L55 10C55 4.48 50.52 0 45 0L15 0C12.45 0 10.11 0.96 8.35 2.53L3.93 6.01 3.92 6.06C1.54 7.89 0 10.76 0 14L0 44C0 49.52 4.48 54 10 54L40 54C42.25 54 44.33 53.25 46 52L46.01 52.01 51.64 47.5 51.65 47.47Z" stroke="#F9F6EC" stroke-width="2"/><ellipse fill="#F9F6EC" cx="9" cy="37" rx="2" ry="3"/><ellipse fill="#F9F6EC" cx="28" cy="37" rx="2" ry="3"/><path d="M18 43.55C20.12 43.55 21.85 41.83 21.85 39.7 21.85 37.58 20.12 39.04 18 39.04 15.88 39.04 14.15 37.58 14.15 39.7 14.15 41.83 15.88 43.55 18 43.55Z" fill="#F9F6EC"/><g transform="translate(6.000000, 10.000000)" stroke="#F9F6EC" stroke-linecap="round"><path d="M0.51 0.38L5.51 0.38C6.61 0.38 7.51 1.27 7.51 2.39L7.51 7.38"/><path d="M10.51 0.38L15.51 0.38C16.61 0.38 17.51 1.27 17.51 2.39L17.51 7.38"/><path d="M20.51 0.38L25.51 0.38C26.61 0.38 27.51 1.27 27.51 2.39L27.51 7.38"/><path d="M30.51 0.38L35.51 0.38C36.61 0.38 37.51 1.27 37.51 2.39L37.51 7.38"/></g><g transform="translate(6.000000, 20.000000)" stroke="#F9F6EC" stroke-linecap="round"><path d="M0.51 0.38L5.51 0.38C6.61 0.38 7.51 1.27 7.51 2.39L7.51 7.38"/><path d="M10.51 0.38L15.51 0.38C16.61 0.38 17.51 1.27 17.51 2.39L17.51 7.38"/><path d="M20.51 0.38L25.51 0.38C26.61 0.38 27.51 1.27 27.51 2.39L27.51 7.38"/><path d="M30.51 0.38L35.51 0.38C36.61 0.38 37.51 1.27 37.51 2.39L37.51 7.38"/></g><g transform="translate(36.000000, 30.000000)" stroke="#F9F6EC" stroke-linecap="round"><path d="M0.51 0.38L5.51 0.38C6.61 0.38 7.51 1.27 7.51 2.39L7.51 7.38"/></g><g transform="translate(36.000000, 40.000000)" stroke="#F9F6EC" stroke-linecap="round"><path d="M0.51 0.38L5.51 0.38C6.61 0.38 7.51 1.27 7.51 2.39L7.51 7.38"/></g></g><g transform="translate(232.500000, 57.000000) rotate(-330.000000) translate(-232.500000, -57.000000) translate(205.000000, 30.000000)" stroke="#F9F6EC"><path d="M51.65 47.47C53.71 45.64 55 42.97 55 40L55 10C55 4.48 50.52 0 45 0L15 0C12.45 0 10.11 0.96 8.35 2.53L3.93 6.01 3.92 6.06C1.54 7.89 0 10.76 0 14L0 44C0 49.52 4.48 54 10 54L40 54C42.25 54 44.33 53.25 46 52L46.01 52.01 51.64 47.5 51.65 47.47Z" stroke-width="2"/><g transform="translate(6.000000, 10.000000)" stroke-linecap="round"><path d="M0.51 0.38L5.51 0.38C6.61 0.38 7.51 1.27 7.51 2.39L7.51 7.38"/><path d="M10.51 0.38L15.51 0.38C16.61 0.38 17.51 1.27 17.51 2.39L17.51 7.38"/><path d="M20.51 0.38L25.51 0.38C26.61 0.38 27.51 1.27 27.51 2.39L27.51 7.38"/><path d="M30.51 0.38L35.51 0.38C36.61 0.38 37.51 1.27 37.51 2.39L37.51 7.38"/></g><g transform="translate(6.000000, 20.000000)" stroke-linecap="round"><path d="M0.51 0.38L5.51 0.38C6.61 0.38 7.51 1.27 7.51 2.39L7.51 7.38"/><path d="M10.51 0.38L15.51 0.38C16.61 0.38 17.51 1.27 17.51 2.39L17.51 7.38"/><path d="M20.51 0.38L25.51 0.38C26.61 0.38 27.51 1.27 27.51 2.39L27.51 7.38"/><path d="M30.51 0.38L35.51 0.38C36.61 0.38 37.51 1.27 37.51 2.39L37.51 7.38"/></g><g transform="translate(36.000000, 30.000000)" stroke-linecap="round"><path d="M0.51 0.38L5.51 0.38C6.61 0.38 7.51 1.27 7.51 2.39L7.51 7.38"/></g><g transform="translate(36.000000, 40.000000)" stroke-linecap="round"><path d="M0.51 0.38L5.51 0.38C6.61 0.38 7.51 1.27 7.51 2.39L7.51 7.38"/></g><g transform="translate(5.000000, 36.000000)" stroke-linecap="round"><path d="M8 4.71C8 4.71 9.37 5.24 9.37 6.8 9.37 8.36 8 8.89 8 8.89"/><path d="M19.36 5C19.36 5 18 5.53 18 7.09 18 8.65 19.36 9.18 19.36 9.18"/><path d="M9.5 7.5L17.5 7.5"/><path d="M0.19 0.35C0.19 0.35 1.27 3.01 3.31 3.01 5.35 3.01 6.42 0.35 6.42 0.35"/><path d="M19 0C19 0 20.07 2.67 22.11 2.67 24.16 2.67 25.23 0 25.23 0"/></g></g><g transform="translate(312.500000, 172.000000) scale(-1, 1) rotate(-330.000000) translate(-312.500000, -172.000000) translate(285.000000, 145.000000)" stroke="#F9F6EC"><path d="M51.65 47.47C53.71 45.64 55 42.97 55 40L55 10C55 4.48 50.52 0 45 0L15 0C12.45 0 10.11 0.96 8.35 2.53L3.93 6.01 3.92 6.06C1.54 7.89 0 10.76 0 14L0 44C0 49.52 4.48 54 10 54L40 54C42.25 54 44.33 53.25 46 52L46.01 52.01 51.64 47.5 51.65 47.47Z" stroke-width="2"/><g transform="translate(6.000000, 10.000000)" stroke-linecap="round"><path d="M0.51 0.38L5.51 0.38C6.61 0.38 7.51 1.27 7.51 2.39L7.51 7.38"/><path d="M10.51 0.38L15.51 0.38C16.61 0.38 17.51 1.27 17.51 2.39L17.51 7.38"/><path d="M20.51 0.38L25.51 0.38C26.61 0.38 27.51 1.27 27.51 2.39L27.51 7.38"/><path d="M30.51 0.38L35.51 0.38C36.61 0.38 37.51 1.27 37.51 2.39L37.51 7.38"/></g><g transform="translate(6.000000, 20.000000)" stroke-linecap="round"><path d="M0.51 0.38L5.51 0.38C6.61 0.38 7.51 1.27 7.51 2.39L7.51 7.38"/><path d="M10.51 0.38L15.51 0.38C16.61 0.38 17.51 1.27 17.51 2.39L17.51 7.38"/><path d="M20.51 0.38L25.51 0.38C26.61 0.38 27.51 1.27 27.51 2.39L27.51 7.38"/><path d="M30.51 0.38L35.51 0.38C36.61 0.38 37.51 1.27 37.51 2.39L37.51 7.38"/></g><g transform="translate(36.000000, 30.000000)" stroke-linecap="round"><path d="M0.51 0.38L5.51 0.38C6.61 0.38 7.51 1.27 7.51 2.39L7.51 7.38"/></g><g transform="translate(36.000000, 40.000000)" stroke-linecap="round"><path d="M0.51 0.38L5.51 0.38C6.61 0.38 7.51 1.27 7.51 2.39L7.51 7.38"/></g><g transform="translate(5.000000, 36.000000)" stroke-linecap="round"><path d="M8 4.71C8 4.71 9.37 5.24 9.37 6.8 9.37 8.36 8 8.89 8 8.89"/><path d="M19.36 5C19.36 5 18 5.53 18 7.09 18 8.65 19.36 9.18 19.36 9.18"/><path d="M9.5 7.5L17.5 7.5"/><path d="M0.19 0.35C0.19 0.35 1.27 3.01 3.31 3.01 5.35 3.01 6.42 0.35 6.42 0.35"/><path d="M19 0C19 0 20.07 2.67 22.11 2.67 24.16 2.67 25.23 0 25.23 0"/></g></g><g transform="translate(387.500000, 57.000000) rotate(-330.000000) translate(-387.500000, -57.000000) translate(360.000000, 30.000000)"><path d="M51.65 47.47C53.71 45.64 55 42.97 55 40L55 10C55 4.48 50.52 0 45 0L15 0C12.45 0 10.11 0.96 8.35 2.53L3.93 6.01 3.92 6.06C1.54 7.89 0 10.76 0 14L0 44C0 49.52 4.48 54 10 54L40 54C42.25 54 44.33 53.25 46 52L46.01 52.01 51.64 47.5 51.65 47.47Z" stroke="#F9F6EC" stroke-width="2"/><g transform="translate(6.000000, 10.000000)" stroke="#F9F6EC" stroke-linecap="round"><path d="M0.51 0.38L5.51 0.38C6.61 0.38 7.51 1.27 7.51 2.39L7.51 7.38"/><path d="M10.51 0.38L15.51 0.38C16.61 0.38 17.51 1.27 17.51 2.39L17.51 7.38"/><path d="M20.51 0.38L25.51 0.38C26.61 0.38 27.51 1.27 27.51 2.39L27.51 7.38"/><path d="M30.51 0.38L35.51 0.38C36.61 0.38 37.51 1.27 37.51 2.39L37.51 7.38"/></g><g transform="translate(6.000000, 20.000000)" stroke="#F9F6EC" stroke-linecap="round"><path d="M0.51 0.38L5.51 0.38C6.61 0.38 7.51 1.27 7.51 2.39L7.51 7.38"/><path d="M10.51 0.38L15.51 0.38C16.61 0.38 17.51 1.27 17.51 2.39L17.51 7.38"/><path d="M20.51 0.38L25.51 0.38C26.61 0.38 27.51 1.27 27.51 2.39L27.51 7.38"/><path d="M30.51 0.38L35.51 0.38C36.61 0.38 37.51 1.27 37.51 2.39L37.51 7.38"/></g><g transform="translate(36.000000, 30.000000)" stroke="#F9F6EC" stroke-linecap="round"><path d="M0.51 0.38L5.51 0.38C6.61 0.38 7.51 1.27 7.51 2.39L7.51 7.38"/></g><g transform="translate(36.000000, 40.000000)" stroke="#F9F6EC" stroke-linecap="round"><path d="M0.51 0.38L5.51 0.38C6.61 0.38 7.51 1.27 7.51 2.39L7.51 7.38"/></g><g transform="translate(6.000000, 34.000000)"><ellipse fill="#F9F6EC" cx="22" cy="3" rx="2" ry="3"/><path d="M0 2C0 2 1.07 4.67 3.11 4.67 5.16 4.67 6.23 2 6.23 2" stroke="#F9F6EC" stroke-linecap="round" transform="translate(3.114651, 3.333158) scale(1, -1) translate(-3.114651, -3.333158) "/><path d="M9.61 8C9.61 8 10.48 10 12.11 10 13.75 10 14.61 8 14.61 8" stroke="#F9F6EC" stroke-linecap="round"/></g></g><g transform="translate(467.500000, 172.000000) scale(-1, 1) rotate(-330.000000) translate(-467.500000, -172.000000) translate(440.000000, 145.000000)"><path d="M51.65 47.47C53.71 45.64 55 42.97 55 40L55 10C55 4.48 50.52 0 45 0L15 0C12.45 0 10.11 0.96 8.35 2.53L3.93 6.01 3.92 6.06C1.54 7.89 0 10.76 0 14L0 44C0 49.52 4.48 54 10 54L40 54C42.25 54 44.33 53.25 46 52L46.01 52.01 51.64 47.5 51.65 47.47Z" stroke="#F9F6EC" stroke-width="2"/><g transform="translate(6.000000, 10.000000)" stroke="#F9F6EC" stroke-linecap="round"><path d="M0.51 0.38L5.51 0.38C6.61 0.38 7.51 1.27 7.51 2.39L7.51 7.38"/><path d="M10.51 0.38L15.51 0.38C16.61 0.38 17.51 1.27 17.51 2.39L17.51 7.38"/><path d="M20.51 0.38L25.51 0.38C26.61 0.38 27.51 1.27 27.51 2.39L27.51 7.38"/><path d="M30.51 0.38L35.51 0.38C36.61 0.38 37.51 1.27 37.51 2.39L37.51 7.38"/></g><g transform="translate(6.000000, 20.000000)" stroke="#F9F6EC" stroke-linecap="round"><path d="M0.51 0.38L5.51 0.38C6.61 0.38 7.51 1.27 7.51 2.39L7.51 7.38"/><path d="M10.51 0.38L15.51 0.38C16.61 0.38 17.51 1.27 17.51 2.39L17.51 7.38"/><path d="M20.51 0.38L25.51 0.38C26.61 0.38 27.51 1.27 27.51 2.39L27.51 7.38"/><path d="M30.51 0.38L35.51 0.38C36.61 0.38 37.51 1.27 37.51 2.39L37.51 7.38"/></g><g transform="translate(36.000000, 30.000000)" stroke="#F9F6EC" stroke-linecap="round"><path d="M0.51 0.38L5.51 0.38C6.61 0.38 7.51 1.27 7.51 2.39L7.51 7.38"/></g><g transform="translate(36.000000, 40.000000)" stroke="#F9F6EC" stroke-linecap="round"><path d="M0.51 0.38L5.51 0.38C6.61 0.38 7.51 1.27 7.51 2.39L7.51 7.38"/></g><g transform="translate(6.000000, 34.000000)"><ellipse fill="#F9F6EC" cx="22" cy="3" rx="2" ry="3"/><path d="M0 2C0 2 1.07 4.67 3.11 4.67 5.16 4.67 6.23 2 6.23 2" stroke="#F9F6EC" stroke-linecap="round" transform="translate(3.114651, 3.333158) scale(1, -1) translate(-3.114651, -3.333158) "/><path d="M9.61 8C9.61 8 10.48 10 12.11 10 13.75 10 14.61 8 14.61 8" stroke="#F9F6EC" stroke-linecap="round"/></g></g><g transform="translate(542.500000, 57.000000) rotate(-330.000000) translate(-542.500000, -57.000000) translate(515.000000, 30.000000)"><path d="M51.65 47.47C53.71 45.64 55 42.97 55 40L55 10C55 4.48 50.52 0 45 0L15 0C12.45 0 10.11 0.96 8.35 2.53L3.93 6.01 3.92 6.06C1.54 7.89 0 10.76 0 14L0 44C0 49.52 4.48 54 10 54L40 54C42.25 54 44.33 53.25 46 52L46.01 52.01 51.64 47.5 51.65 47.47Z" stroke="#F9F6EC" stroke-width="2"/><g transform="translate(6.000000, 10.000000)" stroke="#F9F6EC" stroke-linecap="round"><path d="M0.51 0.38L5.51 0.38C6.61 0.38 7.51 1.27 7.51 2.39L7.51 7.38"/><path d="M10.51 0.38L15.51 0.38C16.61 0.38 17.51 1.27 17.51 2.39L17.51 7.38"/><path d="M20.51 0.38L25.51 0.38C26.61 0.38 27.51 1.27 27.51 2.39L27.51 7.38"/><path d="M30.51 0.38L35.51 0.38C36.61 0.38 37.51 1.27 37.51 2.39L37.51 7.38"/></g><g transform="translate(6.000000, 20.000000)" stroke="#F9F6EC" stroke-linecap="round"><path d="M0.51 0.38L5.51 0.38C6.61 0.38 7.51 1.27 7.51 2.39L7.51 7.38"/><path d="M10.51 0.38L15.51 0.38C16.61 0.38 17.51 1.27 17.51 2.39L17.51 7.38"/><path d="M20.51 0.38L25.51 0.38C26.61 0.38 27.51 1.27 27.51 2.39L27.51 7.38"/><path d="M30.51 0.38L35.51 0.38C36.61 0.38 37.51 1.27 37.51 2.39L37.51 7.38"/></g><g transform="translate(36.000000, 30.000000)" stroke="#F9F6EC" stroke-linecap="round"><path d="M0.51 0.38L5.51 0.38C6.61 0.38 7.51 1.27 7.51 2.39L7.51 7.38"/></g><g transform="translate(36.000000, 40.000000)" stroke="#F9F6EC" stroke-linecap="round"><path d="M0.51 0.38L5.51 0.38C6.61 0.38 7.51 1.27 7.51 2.39L7.51 7.38"/></g><g transform="translate(7.000000, 34.000000)"><ellipse fill="#F9F6EC" cx="3" cy="2" rx="3" ry="2"/><ellipse fill="#F9F6EC" cx="22" cy="2" rx="3" ry="2"/><path d="M7.32 6.03C7.32 6.03 8.9 8.24 12.28 8.24 15.65 8.24 17.23 6.03 17.23 6.03" stroke="#F9F6EC" stroke-linecap="round"/><path d="M9.03 7.69C9.03 7.69 9.09 12.38 12.37 12.38 15.64 12.38 15.77 7.69 15.77 7.69" stroke="#F9F6EC" stroke-linecap="round"/><path d="M12.5 8.5L12.5 10.5" stroke="#F9F6EC" stroke-linecap="round"/></g></g><g transform="translate(622.500000, 172.000000) scale(-1, 1) rotate(-330.000000) translate(-622.500000, -172.000000) translate(595.000000, 145.000000)" stroke="#F9F6EC"><path d="M51.65 47.47C53.71 45.64 55 42.97 55 40L55 10C55 4.48 50.52 0 45 0L15 0C12.45 0 10.11 0.96 8.35 2.53L3.93 6.01 3.92 6.06C1.54 7.89 0 10.76 0 14L0 44C0 49.52 4.48 54 10 54L40 54C42.25 54 44.33 53.25 46 52L46.01 52.01 51.64 47.5 51.65 47.47Z" stroke-width="2"/><g transform="translate(6.000000, 10.000000)" stroke-linecap="round"><path d="M10.51 0.38L15.51 0.38C16.61 0.38 17.51 1.27 17.51 2.39L17.51 7.38"/><path d="M20.51 0.38L25.51 0.38C26.61 0.38 27.51 1.27 27.51 2.39L27.51 7.38"/><path d="M30.51 0.38L35.51 0.38C36.61 0.38 37.51 1.27 37.51 2.39L37.51 7.38"/></g><g transform="translate(6.000000, 20.000000)" stroke-linecap="round"><path d="M20.51 0.38L25.51 0.38C26.61 0.38 27.51 1.27 27.51 2.39L27.51 7.38"/><path d="M30.51 0.38L35.51 0.38C36.61 0.38 37.51 1.27 37.51 2.39L37.51 7.38"/></g><g transform="translate(36.000000, 30.000000)" stroke-linecap="round"><path d="M0.51 0.38L5.51 0.38C6.61 0.38 7.51 1.27 7.51 2.39L7.51 7.38"/></g><g transform="translate(36.000000, 40.000000)" stroke-linecap="round"><path d="M0.51 0.38L5.51 0.38C6.61 0.38 7.51 1.27 7.51 2.39L7.51 7.38"/></g></g><g transform="translate(1.868603, 172.000000) scale(-1, 1) rotate(-330.000000) translate(-1.868603, -172.000000) translate(-25.631397, 145.000000)"><path d="M51.65 47.47C53.71 45.64 55 42.97 55 40L55 10C55 4.48 50.52 0 45 0L15 0C12.45 0 10.11 0.96 8.35 2.53L3.93 6.01 3.92 6.06C1.54 7.89 0 10.76 0 14L0 44C0 49.52 4.48 54 10 54L40 54C42.25 54 44.33 53.25 46 52L46.01 52.01 51.64 47.5 51.65 47.47Z" stroke="#F9F6EC" stroke-width="2"/><g transform="translate(6.000000, 10.000000)" stroke="#F9F6EC" stroke-linecap="round"><path d="M0.51 0.38L5.51 0.38C6.61 0.38 7.51 1.27 7.51 2.39L7.51 7.38"/><path d="M10.51 0.38L15.51 0.38C16.61 0.38 17.51 1.27 17.51 2.39L17.51 7.38"/></g><g transform="translate(6.000000, 20.000000)" stroke="#F9F6EC" stroke-linecap="round"><path d="M0.51 0.38L5.51 0.38C6.61 0.38 7.51 1.27 7.51 2.39L7.51 7.38"/><path d="M10.51 0.38L15.51 0.38C16.61 0.38 17.51 1.27 17.51 2.39L17.51 7.38"/><path d="M20.51 0.38L25.51 0.38C26.61 0.38 27.51 1.27 27.51 2.39L27.51 7.38"/></g><g transform="translate(36.000000, 30.000000)"/><g transform="translate(36.000000, 40.000000)" stroke="#EDEDDE" stroke-linecap="round"><path d="M0.51 0.38L5.51 0.38C6.61 0.38 7.51 1.27 7.51 2.39L7.51 7.38"/></g><g transform="translate(7.000000, 34.000000)"><ellipse fill="#F9F6EC" cx="3" cy="2" rx="3" ry="2"/><ellipse fill="#F9F6EC" cx="22" cy="2" rx="3" ry="2"/><path d="M7.32 6.03C7.32 6.03 8.9 8.24 12.28 8.24 15.65 8.24 17.23 6.03 17.23 6.03" stroke="#F9F6EC" stroke-linecap="round"/><path d="M9.03 7.69C9.03 7.69 9.09 12.38 12.37 12.38 15.64 12.38 15.77 7.69 15.77 7.69" stroke="#F9F6EC" stroke-linecap="round"/><path d="M12.5 8.5L12.5 10.5" stroke="#F9F6EC" stroke-linecap="round"/></g></g></g></svg>