<?xml version="1.0" encoding="UTF-8" standalone="no"?>
<svg width="370px" height="335px" viewBox="0 0 370 335" version="1.1" xmlns="http://www.w3.org/2000/svg" xmlns:xlink="http://www.w3.org/1999/xlink" xmlns:sketch="http://www.bohemiancoding.com/sketch/ns">
    <!-- Generator: Sketch 3.4.2 (15855) - http://www.bohemiancoding.com/sketch -->
    <title>computer</title>
    <desc>Created with Sketch.</desc>
    <defs></defs>
    <g id="Page-1" stroke="none" stroke-width="1" fill="none" fill-rule="evenodd" sketch:type="MSPage">
        <g id="computer" sketch:type="MSArtboardGroup">
            <g id="Group" sketch:type="MSLayerGroup" transform="translate(166.655125, 158.759864) rotate(-20.000000) translate(-166.655125, -158.759864) translate(-0.344875, 36.759864)">
                <path d="M0.522364595,229.000001 C0.462754681,227.809938 0.764491353,226.471017 1.47207592,225.055848 L32.5279241,162.944152 C33.8545532,160.290894 36.336473,157.907471 39.2054675,156.269492 C37.8257931,154.554367 37,152.37194 37,149.991283 L37,10.0087166 C37,4.48105505 41.4720355,1.42108547e-14 46.9933088,1.42108547e-14 L277.006691,1.42108547e-14 C282.525843,1.42108547e-14 287,4.46735199 287,10.0087166 L287,149.991283 C287,152.29546 286.222941,154.417779 284.91674,156.10948 C287.974673,157.665554 290.716702,159.946724 292.303539,162.485663 L331.696461,225.514337 C332.472911,226.756658 332.895159,227.936626 332.993877,229 L333,229.070973 C333.022199,229.349606 333.022012,229.62007 333,229.881376 L333,236.5 C333,240.642136 329.641621,244 325.50997,244 L7.98846494,244 C3.85183563,244 0.498435,240.633707 0.498435,236.5 L0.498435,229 L0.522361386,229 Z" id="Rectangle-59" stroke="#666562" stroke-width="5" fill="#FFFDF5" sketch:type="MSShapeGroup"></path>
                <rect id="Rectangle-62" stroke="#666562" stroke-width="3" fill="#FFFDF5" sketch:type="MSShapeGroup" x="49" y="12" width="226" height="136" rx="2"></rect>
                <g id="Line-+-Line-+-Line" transform="translate(89.000000, 45.000000)" stroke="#FC483B" stroke-width="3" stroke-linecap="round" sketch:type="MSShapeGroup">
                    <path d="M0.5,1.5 L30.5,1.5" id="Line"></path>
                    <path d="M35.5,1.5 L85.5,1.5" id="Line"></path>
                    <path d="M90.5,1.5 L112.5,1.5" id="Line"></path>
                </g>
                <g transform="translate(89.000000, 58.000000)" id="Line" stroke="#FC483B" stroke-width="3" stroke-linecap="round" sketch:type="MSShapeGroup">
                    <path d="M0.5,1.5 L17.5,1.5"></path>
                    <path d="M22.5,1.5 L55.5,1.5"></path>
                    <path d="M60.5,1.5 L72.5,1.5"></path>
                    <path d="M77.5,1.5 L86.5,1.5"></path>
                    <path d="M91.5,1.5 L134.5,1.5"></path>
                </g>
                <g transform="translate(89.000000, 97.000000)" id="Line" stroke="#FC483B" stroke-width="3" stroke-linecap="round" sketch:type="MSShapeGroup">
                    <path d="M0.5,1.5 L27.5,1.5"></path>
                    <path d="M32.5,1.5 L55.5,1.5"></path>
                    <path d="M60.5,1.5 L67.5,1.5"></path>
                    <path d="M72.5,1.5 L94.5,1.5"></path>
                    <path d="M99.5,1.5 L122.5,1.5"></path>
                </g>
                <g transform="translate(109.000000, 110.000000)" id="Line" stroke="#FC483B" stroke-width="3" stroke-linecap="round" sketch:type="MSShapeGroup">
                    <path d="M0.5,1.5 L10.5,1.5"></path>
                    <path d="M15.5,1.5 L47.5,1.5"></path>
                    <path d="M52.5,1.5 L89.5,1.5"></path>
                    <path d="M94.5,1.5 L108.5,1.5"></path>
                    <path d="M113.5,1.5 L135.5,1.5"></path>
                </g>
                <g transform="translate(69.000000, 71.000000)" id="Line" stroke="#FC483B" stroke-width="3" stroke-linecap="round" sketch:type="MSShapeGroup">
                    <path d="M0.5,1.5 L27.5,1.5"></path>
                    <path d="M32.5,1.5 L75.5,1.5"></path>
                    <path d="M80.5,1.5 L112.5,1.5"></path>
                    <path d="M117.5,1.5 L130.5,1.5"></path>
                    <path d="M135.5,1.5 L144.5,1.5"></path>
                    <path d="M149.5,1.5 L178.5,1.5"></path>
                </g>
                <g transform="translate(69.000000, 123.000000)" id="Line" stroke="#FC483B" stroke-width="3" stroke-linecap="round" sketch:type="MSShapeGroup">
                    <path d="M0.5,1.5 L21.5,1.5"></path>
                    <path d="M26.5,1.5 L39.5,1.5"></path>
                    <path d="M44.5,1.5 L77.5,1.5"></path>
                    <path d="M82.5,1.5 L95.5,1.5"></path>
                    <path d="M100.5,1.5 L139.5,1.5"></path>
                    <path d="M144.5,1.5 L163.5,1.5"></path>
                </g>
                <g transform="translate(69.000000, 84.000000)" id="Line" stroke="#FC483B" stroke-width="3" stroke-linecap="round" sketch:type="MSShapeGroup">
                    <path d="M0.5,1.5 L13.5,1.5"></path>
                    <path d="M18.5,1.5 L49.5,1.5"></path>
                    <path d="M54.5,1.5 L65.5,1.5"></path>
                    <path d="M70.5,1.5 L105.5,1.5"></path>
                    <path d="M110.5,1.5 L118.5,1.5"></path>
                    <path d="M123.5,1.5 L152.5,1.5"></path>
                </g>
                <g transform="translate(69.000000, 32.000000)" id="Line" stroke="#FC483B" stroke-width="3" stroke-linecap="round" sketch:type="MSShapeGroup">
                    <path d="M0.5,1.5 L39.5,1.5"></path>
                    <path d="M45.5,1.5 L56.5,1.5"></path>
                    <path d="M61.5,1.5 L83.5,1.5"></path>
                    <path d="M89,2 L121,2"></path>
                    <path d="M126,2 L147,2"></path>
                </g>
                <g transform="translate(41.000000, 169.000000)" id="Line" stroke="#666562" stroke-width="3" stroke-linecap="round" sketch:type="MSShapeGroup">
                    <path d="M36.5,0.5 L15.5,46.5"></path>
                    <path d="M56.5,0.5 L37.5,46.5"></path>
                    <path d="M14.5,7.5 L77.5317383,7.5"></path>
                    <path d="M7.5,20.5 L100.529999,20.5"></path>
                    <path d="M1.64845915e-12,33 L130.029999,33"></path>
                </g>
                <path d="M210,228 L329,228" id="Line" stroke="#666562" stroke-width="3" stroke-linecap="round" sketch:type="MSShapeGroup"></path>
                <path d="M40.7785946,156.744348 L159.778595,156.744348" id="Line" stroke="#5B6267" stroke-width="3" stroke-linecap="round" sketch:type="MSShapeGroup"></path>
            </g>
        </g>
    </g>
</svg>