<?xml version="1.0" encoding="UTF-8" standalone="no"?>
<svg width="370px" height="335px" viewBox="0 0 370 335" version="1.1" xmlns="http://www.w3.org/2000/svg" xmlns:xlink="http://www.w3.org/1999/xlink" xmlns:sketch="http://www.bohemiancoding.com/sketch/ns">
    <!-- Generator: Sketch 3.4.2 (15855) - http://www.bohemiancoding.com/sketch -->
    <title>microphone</title>
    <desc>Created with Sketch.</desc>
    <defs></defs>
    <g id="Page-1" stroke="none" stroke-width="1" fill="none" fill-rule="evenodd" sketch:type="MSPage">
        <g id="microphone" sketch:type="MSArtboardGroup">
            <g id="Group" sketch:type="MSLayerGroup" transform="translate(187.461524, 167.233938) rotate(-30.000000) translate(-187.461524, -167.233938) translate(127.461524, 12.233938)">
                <path d="M42.2297521,305.944792 C40.1630093,304.711575 38.6926887,302.518376 38.5212513,300.018248 L27.0685714,133 L27,133 L27.0369231,132.538462 L27,132 L27.08,132 L28.883475,109.456562 C28.5585753,109.191742 28.2740084,108.904534 28.0490867,108.604638 L19.6421292,97.3953617 C19.5375897,97.2559757 19.4499714,97.1193704 19.3788171,96.9865072 C9.24976049,86.6976908 3,72.5787003 3,57 C3,25.5197693 28.5197693,5.40012479e-13 60,5.40012479e-13 C91.4802307,5.40012479e-13 117,25.5197693 117,57 C117,73.1011214 110.324048,87.6429908 99.5891718,98.0085816 L91.6421292,108.604638 C91.4864387,108.812226 91.3024458,109.013646 91.0964578,109.205722 L92.92,132 L93,132 L92.9630769,132.538462 L93,133 L92.9314286,133 L81.4787487,300.018248 C81.3075434,302.514992 79.8388201,304.708762 77.7726111,305.94308 C74.4458781,308.353006 67.7358405,310 60,310 C52.2659908,310 45.5572989,308.353785 42.2297521,305.944792 Z" id="Oval-7" stroke="#666562" stroke-width="5" fill="#FFFDF5" sketch:type="MSShapeGroup"></path>
                <rect id="Rectangle-56" fill="#666562" sketch:type="MSShapeGroup" x="29" y="106" width="36" height="3" rx="2"></rect>
                <rect id="Rectangle-56" fill="#666562" sketch:type="MSShapeGroup" x="19.7679492" y="93.8660254" width="66" height="3" rx="2"></rect>
                <rect id="Rectangle-56" fill="#666562" sketch:type="MSShapeGroup" x="27" y="130" width="26" height="3" rx="2"></rect>
                <rect id="Rectangle-58" stroke="#666562" stroke-width="3" fill="#FFFDF5" sketch:type="MSShapeGroup" x="-1.95399252e-13" y="49" width="120" height="16" rx="8"></rect>
                <path d="M48.6112902,11.2697051 C42.3235315,12.8476556 30.0709885,21.6205676 26.8717437,28.2613318" id="Path-28" stroke="#666562" stroke-width="3" stroke-linecap="round" sketch:type="MSShapeGroup"></path>
                <path d="M54.7395464,17 C48.4517877,18.5779505 36.1992447,27.3508625 33,33.9916267" id="Path-28" stroke="#666562" stroke-width="3" stroke-linecap="round" sketch:type="MSShapeGroup"></path>
                <path d="M25.2576122,17.8007568 C27.2639293,17.8007568 41.6901092,25.3465408 43.5437297,32.8923248" id="Path-30" stroke="#666562" stroke-width="3" stroke-linecap="round" sketch:type="MSShapeGroup"></path>
                <path d="M33,11 C35.0063171,11 49.432497,18.545784 51.2861176,26.091568" id="Path-30" stroke="#666562" stroke-width="3" stroke-linecap="round" sketch:type="MSShapeGroup"></path>
            </g>
            <g id="Group" sketch:type="MSLayerGroup" transform="translate(241.000000, 27.000000)" stroke="#FC483B" stroke-width="3">
                <path d="M21.5,18.5 L21.5,68.5099983" id="Line" stroke-linecap="square" sketch:type="MSShapeGroup"></path>
                <path d="M68.5,1.5 L68.5,48.5" id="Line" stroke-linecap="square" sketch:type="MSShapeGroup"></path>
                <ellipse id="Oval-9" sketch:type="MSShapeGroup" transform="translate(11.620057, 71.528203) rotate(-20.000000) translate(-11.620057, -71.528203) " cx="11.6200571" cy="71.5282035" rx="10" ry="6.5"></ellipse>
                <ellipse id="Oval-9" sketch:type="MSShapeGroup" transform="translate(58.620057, 52.528203) rotate(-20.000000) translate(-58.620057, -52.528203) " cx="58.6200571" cy="52.5282035" rx="10" ry="6.5"></ellipse>
                <path d="M21.5,17.5 L68.5,0.5" id="Line" stroke-linecap="round" sketch:type="MSShapeGroup"></path>
            </g>
            <path d="M90.5,228.5 L90.5,275.5" id="Line" stroke="#FC483B" stroke-width="3" stroke-linecap="square" sketch:type="MSShapeGroup"></path>
            <ellipse id="Oval-9" stroke="#FC483B" stroke-width="3" sketch:type="MSShapeGroup" transform="translate(80.620057, 279.528203) rotate(-20.000000) translate(-80.620057, -279.528203) " cx="80.6200571" cy="279.528203" rx="10" ry="6.5"></ellipse>
        </g>
    </g>
</svg>