<?xml version="1.0" encoding="UTF-8" standalone="no"?>
<svg width="354px" height="335px" viewBox="0 0 354 335" version="1.1" xmlns="http://www.w3.org/2000/svg" xmlns:xlink="http://www.w3.org/1999/xlink" xmlns:sketch="http://www.bohemiancoding.com/sketch/ns">
    <!-- Generator: Sketch 3.4.2 (15855) - http://www.bohemiancoding.com/sketch -->
    <title>microphone</title>
    <desc>Created with Sketch.</desc>
    <defs></defs>
    <g id="Page-1" stroke="none" stroke-width="1" fill="none" fill-rule="evenodd" sketch:type="MSPage">
        <g id="microphone" sketch:type="MSArtboardGroup">
            <g id="Group" sketch:type="MSLayerGroup" transform="translate(177.461524, 167.233938) rotate(-30.000000) translate(-177.461524, -167.233938) translate(117.461524, 12.233938)">
                <ellipse id="Oval-7" stroke="#666562" stroke-width="5" fill="#FFFDF5" sketch:type="MSShapeGroup" cx="60" cy="57" rx="57" ry="57"></ellipse>
                <path d="M77.7726111,305.94308 C79.8388201,304.708762 81.3075434,302.514992 81.4787487,300.018248 L92.9314286,133 L93,133 L92.9630769,132.538462 L93,132 L92.92,132 L91.0964578,109.205722 C91.3024458,109.013646 91.4864387,108.812226 91.6421292,108.604638 L100.049087,97.3953617 C101.039621,96.0746496 100.501578,95 98.843632,95 L20.8475839,95 C19.1820077,95 18.6499379,96.0724399 19.6421292,97.3953617 L28.0490867,108.604638 C28.2740084,108.904534 28.5585753,109.191742 28.883475,109.456562 L27.08,132 L27,132 L27.0369231,132.538462 L27,133 L27.0685714,133 L38.5212513,300.018248 C38.6926887,302.518376 40.1630093,304.711575 42.2297521,305.944792 C45.5572989,308.353785 52.2659908,310 60,310 C67.7358405,310 74.4458781,308.353006 77.7726111,305.94308 Z" id="Rectangle-54" stroke="#666562" stroke-width="5" fill="#FFFDF5" sketch:type="MSShapeGroup"></path>
                <rect id="Rectangle-56" fill="#666562" sketch:type="MSShapeGroup" x="29" y="106" width="36" height="3" rx="2"></rect>
                <rect id="Rectangle-56" fill="#666562" sketch:type="MSShapeGroup" x="27" y="130" width="26" height="3" rx="2"></rect>
                <rect id="Rectangle-58" stroke="#666562" stroke-width="5" fill="#FFFDF5" sketch:type="MSShapeGroup" x="-1.95399252e-13" y="49" width="120" height="16" rx="8"></rect>
                <path d="M48.6112902,11.2697051 C42.3235315,12.8476556 30.0709885,21.6205676 26.8717437,28.2613318" id="Path-28" stroke="#666562" stroke-width="3" stroke-linecap="round" sketch:type="MSShapeGroup"></path>
                <path d="M54.7395464,17 C48.4517877,18.5779505 36.1992447,27.3508625 33,33.9916267" id="Path-28" stroke="#666562" stroke-width="3" stroke-linecap="round" sketch:type="MSShapeGroup"></path>
                <path d="M25.2576122,17.8007568 C27.2639293,17.8007568 41.6901092,25.3465408 43.5437297,32.8923248" id="Path-30" stroke="#666562" stroke-width="3" stroke-linecap="round" sketch:type="MSShapeGroup"></path>
                <path d="M33,11 C35.0063171,11 49.432497,18.545784 51.2861176,26.091568" id="Path-30" stroke="#666562" stroke-width="3" stroke-linecap="round" sketch:type="MSShapeGroup"></path>
            </g>
            <g id="Group" sketch:type="MSLayerGroup" transform="translate(232.000000, 27.000000)">
                <path d="M19.5,18.5 L19.5,68.5099983" id="Line" stroke="#FC483B" stroke-width="3" stroke-linecap="square" sketch:type="MSShapeGroup"></path>
                <path d="M68.5,1.5 L68.5,48.5" id="Line" stroke="#FC483B" stroke-width="3" stroke-linecap="square" sketch:type="MSShapeGroup"></path>
                <ellipse id="Oval-9" fill="#FC483B" sketch:type="MSShapeGroup" transform="translate(11.620057, 71.528203) rotate(-20.000000) translate(-11.620057, -71.528203) " cx="11.6200571" cy="71.5282035" rx="10" ry="6.5"></ellipse>
                <ellipse id="Oval-9" fill="#FC483B" sketch:type="MSShapeGroup" transform="translate(60.620057, 52.528203) rotate(-20.000000) translate(-60.620057, -52.528203) " cx="60.6200571" cy="52.5282035" rx="10" ry="6.5"></ellipse>
                <path d="M20.5,17.5 L67.5,0.5" id="Line" stroke="#FC483B" stroke-width="5" stroke-linecap="round" sketch:type="MSShapeGroup"></path>
            </g>
            <path d="M80.5,228.5 L80.5,275.5" id="Line" stroke="#FC483B" stroke-width="3" stroke-linecap="square" sketch:type="MSShapeGroup"></path>
            <ellipse id="Oval-9" fill="#FC483B" sketch:type="MSShapeGroup" transform="translate(72.620057, 279.528203) rotate(-20.000000) translate(-72.620057, -279.528203) " cx="72.6200571" cy="279.528203" rx="10" ry="6.5"></ellipse>
        </g>
    </g>
</svg>