<?xml version="1.0" encoding="UTF-8" standalone="no"?>
<svg width="354px" height="335px" viewBox="0 0 354 335" version="1.1" xmlns="http://www.w3.org/2000/svg" xmlns:xlink="http://www.w3.org/1999/xlink" xmlns:sketch="http://www.bohemiancoding.com/sketch/ns">
    <!-- Generator: Sketch 3.4.2 (15855) - http://www.bohemiancoding.com/sketch -->
    <title>waffle</title>
    <desc>Created with Sketch.</desc>
    <defs></defs>
    <g id="Page-1" stroke="none" stroke-width="1" fill="none" fill-rule="evenodd" sketch:type="MSPage">
        <g id="waffle" sketch:type="MSArtboardGroup">
            <g id="Group" sketch:type="MSLayerGroup" transform="translate(-4.000000, -15.000000)" stroke="#666562">
                <path d="M180.726896,295.629763 C256.926194,295.629763 318.69793,241.44403 318.69793,174.60254 C318.69793,107.761051 256.926194,53.5753175 180.726896,53.5753175 C104.527598,53.5753175 42.755862,107.761051 42.755862,174.60254 C42.755862,241.44403 104.527598,295.629763 180.726896,295.629763 Z" id="Oval-39" stroke-width="5" fill="#FFFDF5" sketch:type="MSShapeGroup" transform="translate(180.726896, 174.602540) rotate(-30.000000) translate(-180.726896, -174.602540) "></path>
                <path d="M298.167969,105.625 C325.265625,182.5 268.964844,275.039062 165.863281,279.597656" id="Path-386" stroke-width="3" stroke-linecap="round" sketch:type="MSShapeGroup"></path>
                <path d="M253.5,205.5 L192.5,167.5" id="Line" stroke-width="3" stroke-linecap="round" sketch:type="MSShapeGroup"></path>
                <path d="M153.5,140.5 L103.5,107.5" id="Line" stroke-width="3" stroke-linecap="round" sketch:type="MSShapeGroup"></path>
                <path d="M233.5,75.5 L193.5,125.5" id="Line" stroke-width="3" stroke-linecap="round" sketch:type="MSShapeGroup"></path>
                <path d="M152.5,181.5 L108.5,231.5" id="Line" stroke-width="3" stroke-linecap="round" sketch:type="MSShapeGroup"></path>
                <g id="Path-389-+-Path-389" transform="translate(232.500000, 139.000000) rotate(-10.000000) translate(-232.500000, -139.000000) translate(219.000000, 124.000000)" stroke-width="3" sketch:type="MSShapeGroup" stroke-linecap="round">
                    <path d="M0,9.98703814 L11.0859778,0.706885935 C12.3569875,-0.35708543 14.4155977,-0.358846263 15.6887106,0.706885931 L26.7746871,9.98703812" id="Path-389"></path>
                    <path d="M0,29.435474 L11.0859778,20.1553218 C12.3569875,19.0913505 14.4155977,19.0895896 15.6887106,20.1553218 L26.7746871,29.435474" id="Path-389" transform="translate(13.387344, 24.717737) scale(1, -1) translate(-13.387344, -24.717737) "></path>
                </g>
                <g id="Path-389-+-Path-389" transform="translate(77.923679, 174.840481) rotate(-10.000000) translate(-77.923679, -174.840481) translate(64.423679, 169.840481)" stroke-width="3" sketch:type="MSShapeGroup" stroke-linecap="round">
                    <path d="M6.64357458e-13,9.43547403 L11.0859778,0.155321822 C12.3569875,-0.908649543 14.4155977,-0.910410376 15.6887106,0.155321818 L26.7746871,9.435474" id="Path-389" transform="translate(13.387344, 4.717737) scale(1, -1) translate(-13.387344, -4.717737) "></path>
                </g>
                <g id="Path-389-+-Path-389" transform="translate(95.636109, 141.964444) rotate(-10.000000) translate(-95.636109, -141.964444) translate(82.136109, 136.964444)" stroke-width="3" sketch:type="MSShapeGroup" stroke-linecap="round">
                    <path d="M1.7408297e-12,9.43547403 L11.0859778,0.155321822 C12.3569875,-0.908649543 14.4155977,-0.910410376 15.6887106,0.155321818 L26.7746871,9.435474" id="Path-389" transform="translate(13.387344, 4.717737) scale(1, -1) translate(-13.387344, -4.717737) "></path>
                </g>
                <g id="Path-389-+-Path-389" transform="translate(180.899627, 198.116367) rotate(-10.000000) translate(-180.899627, -198.116367) translate(167.399627, 183.116367)" stroke-width="3" sketch:type="MSShapeGroup" stroke-linecap="round">
                    <path d="M0,9.98703814 L11.0859778,0.706885935 C12.3569875,-0.35708543 14.4155977,-0.358846263 15.6887106,0.706885931 L26.7746871,9.98703812" id="Path-389"></path>
                    <path d="M0,29.435474 L11.0859778,20.1553218 C12.3569875,19.0913505 14.4155977,19.0895896 15.6887106,20.1553218 L26.7746871,29.435474" id="Path-389" transform="translate(13.387344, 24.717737) scale(1, -1) translate(-13.387344, -24.717737) "></path>
                </g>
                <g id="Path-389-+-Path-389" transform="translate(158.500000, 228.623963) rotate(-10.000000) translate(-158.500000, -228.623963) translate(145.000000, 213.623963)" stroke-width="3" sketch:type="MSShapeGroup" stroke-linecap="round">
                    <path d="M0,9.98703814 L11.0859778,0.706885935 C12.3569875,-0.35708543 14.4155977,-0.358846263 15.6887106,0.706885931 L26.7746871,9.98703812" id="Path-389"></path>
                    <path d="M0,29.435474 L11.0859778,20.1553218 C12.3569875,19.0913505 14.4155977,19.0895896 15.6887106,20.1553218 L26.7746871,29.435474" id="Path-389" transform="translate(13.387344, 24.717737) scale(1, -1) translate(-13.387344, -24.717737) "></path>
                </g>
                <g id="Path-389-+-Path-389" transform="translate(173.100373, 75.116367) rotate(-10.000000) translate(-173.100373, -75.116367) translate(159.600373, 60.116367)" stroke-width="3" sketch:type="MSShapeGroup" stroke-linecap="round">
                    <path d="M0,9.98703814 L11.0859778,0.706885935 C12.3569875,-0.35708543 14.4155977,-0.358846263 15.6887106,0.706885931 L26.7746871,9.98703812" id="Path-389"></path>
                    <path d="M0,29.435474 L11.0859778,20.1553218 C12.3569875,19.0913505 14.4155977,19.0895896 15.6887106,20.1553218 L26.7746871,29.435474" id="Path-389" transform="translate(13.387344, 24.717737) scale(1, -1) translate(-13.387344, -24.717737) "></path>
                </g>
                <g id="Path-389-+-Path-389" transform="translate(155.163146, 105.268289) rotate(-10.000000) translate(-155.163146, -105.268289) translate(141.663146, 100.268289)" stroke-width="3" stroke-linecap="round" sketch:type="MSShapeGroup">
                    <path d="M-1.62003744e-12,9.98703814 L11.0859778,0.706885935 C12.3569875,-0.35708543 14.4155977,-0.358846263 15.6887106,0.706885931 L26.7746871,9.98703812" id="Path-389"></path>
                </g>
                <g id="Path-389-+-Path-389" transform="translate(128.836854, 94.964444) rotate(-10.000000) translate(-128.836854, -94.964444) translate(115.336854, 89.964444)" stroke-width="3" sketch:type="MSShapeGroup" stroke-linecap="round">
                    <path d="M6.53699317e-13,9.43547403 L11.0859778,0.155321822 C12.3569875,-0.908649543 14.4155977,-0.910410376 15.6887106,0.155321818 L26.7746871,9.435474" id="Path-389" transform="translate(13.387344, 4.717737) scale(1, -1) translate(-13.387344, -4.717737) "></path>
                </g>
                <g id="Path-389-+-Path-389" transform="translate(278.500000, 132.500000) rotate(-10.000000) translate(-278.500000, -132.500000) translate(265.000000, 118.000000)" stroke-width="3" sketch:type="MSShapeGroup" stroke-linecap="round">
                    <path d="M0,9.42820111 L11.0859778,0.148048907 C12.3569875,-0.915922458 14.4155977,-0.917683291 15.6887106,0.148048903 L26.7746871,9.42820109" id="Path-389"></path>
                    <path d="M0,28.435474 L11.0859778,19.1553218 C12.3569875,18.0913505 14.4155977,18.0895896 15.6887106,19.1553218 L26.7746871,28.435474" id="Path-389" transform="translate(13.387344, 23.717737) scale(1, -1) translate(-13.387344, -23.717737) "></path>
                </g>
                <g id="Path-389-+-Path-389" transform="translate(126.100373, 160.500000) rotate(-10.000000) translate(-126.100373, -160.500000) translate(112.600373, 146.000000)" stroke-width="3" sketch:type="MSShapeGroup" stroke-linecap="round">
                    <path d="M0,9.42820111 L11.0859778,0.148048907 C12.3569875,-0.915922458 14.4155977,-0.917683291 15.6887106,0.148048903 L26.7746871,9.42820109" id="Path-389"></path>
                    <path d="M0,28.435474 L11.0859778,19.1553218 C12.3569875,18.0913505 14.4155977,18.0895896 15.6887106,19.1553218 L26.7746871,28.435474" id="Path-389" transform="translate(13.387344, 23.717737) scale(1, -1) translate(-13.387344, -23.717737) "></path>
                </g>
                <g id="Path-389-+-Path-389" transform="translate(259.500000, 168.500000) rotate(-10.000000) translate(-259.500000, -168.500000) translate(246.000000, 154.000000)" stroke-width="3" sketch:type="MSShapeGroup" stroke-linecap="round">
                    <path d="M0,9.81300448 L11.0859778,0.532852272 C12.3569875,-0.531119092 14.4155977,-0.532879925 15.6887106,0.532852268 L26.7746871,9.81300445" id="Path-389"></path>
                    <path d="M0,28.8202774 L11.0859778,19.5401252 C12.3569875,18.4761538 14.4155977,18.474393 15.6887106,19.5401252 L26.7746871,28.8202774" id="Path-389" transform="translate(13.387344, 24.102540) scale(1, -1) translate(-13.387344, -24.102540) "></path>
                </g>
                <g id="Path-389-+-Path-389" transform="translate(101.450715, 184.144326) rotate(-10.000000) translate(-101.450715, -184.144326) translate(87.950715, 179.144326)" stroke-width="3" stroke-linecap="round" sketch:type="MSShapeGroup">
                    <path d="M-1.09423581e-12,9.81300448 L11.0859778,0.532852272 C12.3569875,-0.531119092 14.4155977,-0.532879925 15.6887106,0.532852268 L26.7746871,9.81300445" id="Path-389"></path>
                </g>
                <g id="Path-389-+-Path-389" transform="translate(213.312803, 221.623963) rotate(-10.000000) translate(-213.312803, -221.623963) translate(199.812803, 207.123963)" stroke-width="3" sketch:type="MSShapeGroup" stroke-linecap="round">
                    <path d="M0,9.81300448 L11.0859778,0.532852272 C12.3569875,-0.531119092 14.4155977,-0.532879925 15.6887106,0.532852268 L26.7746871,9.81300445" id="Path-389"></path>
                    <path d="M0,28.8202774 L11.0859778,19.5401252 C12.3569875,18.4761538 14.4155977,18.474393 15.6887106,19.5401252 L26.7746871,28.8202774" id="Path-389" transform="translate(13.387344, 24.102540) scale(1, -1) translate(-13.387344, -24.102540) "></path>
                </g>
                <g id="Path-389-+-Path-389" transform="translate(189.763518, 242.775885) rotate(-10.000000) translate(-189.763518, -242.775885) translate(176.263518, 237.775885)" stroke-width="3" stroke-linecap="round" sketch:type="MSShapeGroup">
                    <path d="M-5.68434189e-13,9.81300448 L11.0859778,0.532852272 C12.3569875,-0.531119092 14.4155977,-0.532879925 15.6887106,0.532852268 L26.7746871,9.81300445" id="Path-389"></path>
                </g>
                <g id="Path-389-+-Path-389" transform="translate(250.812803, 102.623963) rotate(-10.000000) translate(-250.812803, -102.623963) translate(237.312803, 88.123963)" stroke-width="3" sketch:type="MSShapeGroup" stroke-linecap="round">
                    <path d="M0,9.81300448 L11.0859778,0.532852272 C12.3569875,-0.531119092 14.4155977,-0.532879925 15.6887106,0.532852268 L26.7746871,9.81300445" id="Path-389"></path>
                    <path d="M0,28.8202774 L11.0859778,19.5401252 C12.3569875,18.4761538 14.4155977,18.474393 15.6887106,19.5401252 L26.7746871,28.8202774" id="Path-389" transform="translate(13.387344, 24.102540) scale(1, -1) translate(-13.387344, -24.102540) "></path>
                </g>
            </g>
            <g id="Group" sketch:type="MSLayerGroup" transform="translate(41.355339, 287.355339) rotate(-45.000000) translate(-41.355339, -287.355339) translate(20.355339, 258.355339)">
                <path d="M28.0413248,11.2351274 C29.1639721,8.22077496 31.0910375,3.59911035 30.0433291,2.71997868 C29.1556709,1.97514494 25.903436,3.80393697 23.3136794,5.36745777 C22.3701779,2.72699352 21.2646673,-1.20981052e-14 20.2315356,0 C19.1952031,1.25972671e-14 18.0332316,2.79266077 17.099043,5.43037861 C14.4930735,3.85358399 11.1648846,1.96512953 10.2652905,2.71997868 C9.188888,3.62318757 11.2524338,8.47673391 12.3576466,11.4790675 C12.3906861,11.5688199 12.4262235,11.6560304 12.4641254,11.7407324 C11.2651985,11.8206803 10.5289931,11.876781 10.5289931,11.876781 C10.5289931,11.876781 1.31779996,13.8319199 0.445939103,21.9951947 C-0.425921759,30.1584696 4.47221477,34.0351995 7.26785536,42.801927 C10.063496,51.5686544 15.2570325,57.3361595 21.5789152,57.3361607 C27.9007979,57.336162 33.855609,48.9371446 35.5416724,42.801927 C37.2277359,36.6667093 43.4043281,30.7693828 41.0746276,21.9951948 C38.7449271,13.2210067 33.6620048,13.1607819 31.7094838,11.7861717 C31.2584913,11.4686647 29.8858261,11.3026672 28.0413248,11.2351274 Z" id="Oval-49" fill="#FC483B" sketch:type="MSShapeGroup"></path>
                <circle id="Oval-40" fill="#FFFDF5" sketch:type="MSShapeGroup" cx="7.5" cy="22.5" r="1.5"></circle>
                <circle id="Oval-40" fill="#FFFDF5" sketch:type="MSShapeGroup" cx="14.5" cy="29.5" r="1.5"></circle>
                <circle id="Oval-40" fill="#FFFDF5" sketch:type="MSShapeGroup" cx="14.5" cy="41.5" r="1.5"></circle>
                <circle id="Oval-40" fill="#FFFDF5" sketch:type="MSShapeGroup" cx="27.5" cy="41.5" r="1.5"></circle>
                <circle id="Oval-40" fill="#FFFDF5" sketch:type="MSShapeGroup" cx="20.5" cy="22.5" r="1.5"></circle>
                <circle id="Oval-40" fill="#FFFDF5" sketch:type="MSShapeGroup" cx="20.5" cy="35.5" r="1.5"></circle>
                <circle id="Oval-40" fill="#FFFDF5" sketch:type="MSShapeGroup" cx="20.5" cy="47.5" r="1.5"></circle>
                <circle id="Oval-40" fill="#FFFDF5" sketch:type="MSShapeGroup" cx="33.5" cy="22.5" r="1.5"></circle>
                <circle id="Oval-40" fill="#FFFDF5" sketch:type="MSShapeGroup" cx="27.5" cy="29.5" r="1.5"></circle>
            </g>
            <g id="Group" sketch:type="MSLayerGroup" transform="translate(311.355339, 36.355339) rotate(-315.000000) translate(-311.355339, -36.355339) translate(290.355339, 7.355339)">
                <path d="M28.0413248,11.2351274 C29.1639721,8.22077496 31.0910375,3.59911035 30.0433291,2.71997868 C29.1556709,1.97514494 25.903436,3.80393697 23.3136794,5.36745777 C22.3701779,2.72699352 21.2646673,-1.20981052e-14 20.2315356,0 C19.1952031,1.25972671e-14 18.0332316,2.79266077 17.099043,5.43037861 C14.4930735,3.85358399 11.1648846,1.96512953 10.2652905,2.71997868 C9.188888,3.62318757 11.2524338,8.47673391 12.3576466,11.4790675 C12.3906861,11.5688199 12.4262235,11.6560304 12.4641254,11.7407324 C11.2651985,11.8206803 10.5289931,11.876781 10.5289931,11.876781 C10.5289931,11.876781 1.31779996,13.8319199 0.445939103,21.9951947 C-0.425921759,30.1584696 4.47221477,34.0351995 7.26785536,42.801927 C10.063496,51.5686544 15.2570325,57.3361595 21.5789152,57.3361607 C27.9007979,57.336162 33.855609,48.9371446 35.5416724,42.801927 C37.2277359,36.6667093 43.4043281,30.7693828 41.0746276,21.9951948 C38.7449271,13.2210067 33.6620048,13.1607819 31.7094838,11.7861717 C31.2584913,11.4686647 29.8858261,11.3026672 28.0413248,11.2351274 Z" id="Oval-49" fill="#FC483B" sketch:type="MSShapeGroup"></path>
                <circle id="Oval-40" fill="#FFFDF5" sketch:type="MSShapeGroup" cx="7.5" cy="22.5" r="1.5"></circle>
                <circle id="Oval-40" fill="#FFFDF5" sketch:type="MSShapeGroup" cx="14.5" cy="29.5" r="1.5"></circle>
                <circle id="Oval-40" fill="#FFFDF5" sketch:type="MSShapeGroup" cx="14.5" cy="41.5" r="1.5"></circle>
                <circle id="Oval-40" fill="#FFFDF5" sketch:type="MSShapeGroup" cx="27.5" cy="41.5" r="1.5"></circle>
                <circle id="Oval-40" fill="#FFFDF5" sketch:type="MSShapeGroup" cx="20.5" cy="22.5" r="1.5"></circle>
                <circle id="Oval-40" fill="#FFFDF5" sketch:type="MSShapeGroup" cx="20.5" cy="35.5" r="1.5"></circle>
                <circle id="Oval-40" fill="#FFFDF5" sketch:type="MSShapeGroup" cx="20.5" cy="47.5" r="1.5"></circle>
                <circle id="Oval-40" fill="#FFFDF5" sketch:type="MSShapeGroup" cx="33.5" cy="22.5" r="1.5"></circle>
                <circle id="Oval-40" fill="#FFFDF5" sketch:type="MSShapeGroup" cx="27.5" cy="29.5" r="1.5"></circle>
            </g>
        </g>
    </g>
</svg>