<?xml version="1.0" encoding="UTF-8" standalone="no"?>
<svg width="370px" height="335px" viewBox="0 0 370 335" version="1.1" xmlns="http://www.w3.org/2000/svg" xmlns:xlink="http://www.w3.org/1999/xlink" xmlns:sketch="http://www.bohemiancoding.com/sketch/ns">
    <!-- Generator: Sketch 3.4.2 (15855) - http://www.bohemiancoding.com/sketch -->
    <title>waffle</title>
    <desc>Created with Sketch.</desc>
    <defs></defs>
    <g id="Page-1" stroke="none" stroke-width="1" fill="none" fill-rule="evenodd" sketch:type="MSPage">
        <g id="waffle" sketch:type="MSArtboardGroup">
            <g id="Group" sketch:type="MSLayerGroup" transform="translate(177.000000, 160.000000) rotate(-340.000000) translate(-177.000000, -160.000000) translate(31.000000, 65.000000)" stroke="#666562">
                <path d="M1.92999887,80.2746185 L1.0730415,108.120612 C0.685341737,109.05099 0.656042028,110.018667 0.985763159,110.956636 L0.984428644,111 L1.00127024,111 C1.46242197,112.267977 2.580989,113.479666 4.35850951,114.469044 L136.297287,187.906943 C141.111097,190.586338 148.949257,190.605241 153.783251,187.937445 L286.961837,114.438542 C288.741102,113.456597 289.862958,112.256035 290.328742,111 L291,111 L291,81.0336303 C292.307233,78.7035756 291.26751,76.0749054 287.889866,74.2508675 L154.794159,2.37485019 C149.933723,-0.24994333 142.06539,-0.231278969 137.211804,2.41224965 L5.38292818,74.213468 C2.37559153,75.8514281 1.22217233,78.1354696 1.92999887,80.2746185 Z" id="Rectangle-109" stroke-width="5" fill="#FFFDF5" sketch:type="MSShapeGroup"></path>
                <g id="Path-418-+-Path-418-+-Path-418" transform="translate(115.000000, 61.000000)" stroke-width="3" stroke-linecap="round" sketch:type="MSShapeGroup">
                    <path d="M90,13.9999999 L111.812233,1.49161218 C113.248773,0.66781752 115.5744,0.665830739 117.014405,1.49161221 L138.826637,14.0000002" id="Path-418"></path>
                    <path d="M45,37.9999999 L66.8122327,25.4916122 C68.2487728,24.6678175 70.5743999,24.6658307 72.0144046,25.4916122 L93.8266373,38.0000002" id="Path-418"></path>
                    <path d="M0,61.9999999 L21.8122327,49.4916122 C23.2487728,48.6678175 25.5743999,48.6658307 27.0144046,49.4916122 L48.8266373,62.0000002" id="Path-418"></path>
                </g>
                <g id="Path-418-+-Path-418-+-Path-418" transform="translate(73.000000, 40.000000)" stroke-width="3" stroke-linecap="round" sketch:type="MSShapeGroup">
                    <path d="M90,13.9999999 L111.812233,1.49161218 C113.248773,0.66781752 115.5744,0.665830739 117.014405,1.49161221 L138.826637,14.0000002" id="Path-418"></path>
                    <path d="M45,37.9999999 L66.8122327,25.4916122 C68.2487728,24.6678175 70.5743999,24.6658307 72.0144046,25.4916122 L93.8266373,38.0000002" id="Path-418"></path>
                    <path d="M0,61.9999999 L21.8122327,49.4916122 C23.2487728,48.6678175 25.5743999,48.6658307 27.0144046,49.4916122 L48.8266373,62.0000002" id="Path-418"></path>
                </g>
                <g id="Path-418-+-Path-418-+-Path-418" transform="translate(31.000000, 19.000000)" stroke-width="3" stroke-linecap="round" sketch:type="MSShapeGroup">
                    <path d="M90,13.9999999 L111.812233,1.49161218 C113.248773,0.66781752 115.5744,0.665830739 117.014405,1.49161221 L138.826637,14.0000002" id="Path-418"></path>
                    <path d="M45,37.9999999 L66.8122327,25.4916122 C68.2487728,24.6678175 70.5743999,24.6658307 72.0144046,25.4916122 L93.8266373,38.0000002" id="Path-418"></path>
                    <path d="M0,61.9999999 L21.8122327,49.4916122 C23.2487728,48.6678175 25.5743999,48.6658307 27.0144046,49.4916122 L48.8266373,62.0000002" id="Path-418"></path>
                </g>
                <path d="M288.901897,78.523382 L156.464482,152.796347 C150.685108,156.037509 141.347598,155.983217 135.605771,152.673468 L118.297437,142.696462" id="Path-471" stroke-width="3" stroke-linecap="round" sketch:type="MSShapeGroup"></path>
            </g>
            <g id="Group" sketch:type="MSLayerGroup" transform="translate(311.355339, 56.355339) rotate(-315.000000) translate(-311.355339, -56.355339) translate(290.355339, 27.355339)">
                <path d="M28.0413248,11.2351274 C29.1639721,8.22077496 31.0910375,3.59911035 30.0433291,2.71997868 C29.1556709,1.97514494 25.903436,3.80393697 23.3136794,5.36745777 C22.3701779,2.72699352 21.2646673,-4.38423747e-13 20.2315356,-4.26325641e-13 C19.1952031,-4.13728374e-13 18.0332316,2.79266077 17.099043,5.43037861 C14.4930735,3.85358399 11.1648846,1.96512953 10.2652905,2.71997868 C9.188888,3.62318757 11.2524338,8.47673391 12.3576466,11.4790675 C12.3906861,11.5688199 12.4262235,11.6560304 12.4641254,11.7407324 C11.2651985,11.8206803 10.5289931,11.876781 10.5289931,11.876781 C10.5289931,11.876781 1.31779996,13.8319199 0.445939103,21.9951947 C-0.425921759,30.1584696 4.47221477,34.0351995 7.26785536,42.801927 C10.063496,51.5686544 15.2570325,57.3361595 21.5789152,57.3361607 C27.9007979,57.336162 33.855609,48.9371446 35.5416724,42.801927 C37.2277359,36.6667093 43.4043281,30.7693828 41.0746276,21.9951948 C38.7449271,13.2210067 33.6620048,13.1607819 31.7094838,11.7861717 C31.2584913,11.4686647 29.8858261,11.3026672 28.0413248,11.2351274 Z" id="Oval-49" stroke="#FC483B" stroke-width="3" sketch:type="MSShapeGroup"></path>
                <circle id="Oval-40" fill="#FC483B" sketch:type="MSShapeGroup" cx="7.5" cy="22.5" r="1.5"></circle>
                <circle id="Oval-40" fill="#FC483B" sketch:type="MSShapeGroup" cx="14.5" cy="29.5" r="1.5"></circle>
                <circle id="Oval-40" fill="#FC483B" sketch:type="MSShapeGroup" cx="14.5" cy="41.5" r="1.5"></circle>
                <circle id="Oval-40" fill="#FC483B" sketch:type="MSShapeGroup" cx="27.5" cy="41.5" r="1.5"></circle>
                <circle id="Oval-40" fill="#FC483B" sketch:type="MSShapeGroup" cx="20.5" cy="22.5" r="1.5"></circle>
                <circle id="Oval-40" fill="#FC483B" sketch:type="MSShapeGroup" cx="20.5" cy="35.5" r="1.5"></circle>
                <circle id="Oval-40" fill="#FC483B" sketch:type="MSShapeGroup" cx="20.5" cy="47.5" r="1.5"></circle>
                <circle id="Oval-40" fill="#FC483B" sketch:type="MSShapeGroup" cx="33.5" cy="22.5" r="1.5"></circle>
                <circle id="Oval-40" fill="#FC483B" sketch:type="MSShapeGroup" cx="27.5" cy="29.5" r="1.5"></circle>
            </g>
            <g id="Group" sketch:type="MSLayerGroup" transform="translate(71.355339, 277.355339) rotate(-45.000000) translate(-71.355339, -277.355339) translate(50.355339, 248.355339)">
                <path d="M28.0413248,11.2351274 C29.1639721,8.22077496 31.0910375,3.59911035 30.0433291,2.71997868 C29.1556709,1.97514494 25.903436,3.80393697 23.3136794,5.36745777 C22.3701779,2.72699352 21.2646673,6.41601212e-13 20.2315356,6.53699317e-13 C19.1952031,6.66296584e-13 18.0332316,2.79266077 17.099043,5.43037861 C14.4930735,3.85358399 11.1648846,1.96512953 10.2652905,2.71997868 C9.188888,3.62318757 11.2524338,8.47673391 12.3576466,11.4790675 C12.3906861,11.5688199 12.4262235,11.6560304 12.4641254,11.7407324 C11.2651985,11.8206803 10.5289931,11.876781 10.5289931,11.876781 C10.5289931,11.876781 1.31779996,13.8319199 0.445939103,21.9951947 C-0.425921759,30.1584696 4.47221477,34.0351995 7.26785536,42.801927 C10.063496,51.5686544 15.2570325,57.3361595 21.5789152,57.3361607 C27.9007979,57.336162 33.855609,48.9371446 35.5416724,42.801927 C37.2277359,36.6667093 43.4043281,30.7693828 41.0746276,21.9951948 C38.7449271,13.2210067 33.6620048,13.1607819 31.7094838,11.7861717 C31.2584913,11.4686647 29.8858261,11.3026672 28.0413248,11.2351274 Z" id="Oval-49" stroke="#FC483B" stroke-width="3" sketch:type="MSShapeGroup"></path>
                <circle id="Oval-40" fill="#FC483B" sketch:type="MSShapeGroup" cx="7.5" cy="22.5" r="1.5"></circle>
                <circle id="Oval-40" fill="#FC483B" sketch:type="MSShapeGroup" cx="14.5" cy="29.5" r="1.5"></circle>
                <circle id="Oval-40" fill="#FC483B" sketch:type="MSShapeGroup" cx="14.5" cy="41.5" r="1.5"></circle>
                <circle id="Oval-40" fill="#FC483B" sketch:type="MSShapeGroup" cx="27.5" cy="41.5" r="1.5"></circle>
                <circle id="Oval-40" fill="#FC483B" sketch:type="MSShapeGroup" cx="20.5" cy="22.5" r="1.5"></circle>
                <circle id="Oval-40" fill="#FC483B" sketch:type="MSShapeGroup" cx="20.5" cy="35.5" r="1.5"></circle>
                <circle id="Oval-40" fill="#FC483B" sketch:type="MSShapeGroup" cx="20.5" cy="47.5" r="1.5"></circle>
                <circle id="Oval-40" fill="#FC483B" sketch:type="MSShapeGroup" cx="33.5" cy="22.5" r="1.5"></circle>
                <circle id="Oval-40" fill="#FC483B" sketch:type="MSShapeGroup" cx="27.5" cy="29.5" r="1.5"></circle>
            </g>
        </g>
    </g>
</svg>